<svg xmlns="http://www.w3.org/2000/svg" viewBox="0 0 403.524 415.76">
  <defs>
    <style>
      .cls-1, .cls-2 {
        fill: none;
        stroke-miterlimit: 10;
      }

      .cls-1 {
        stroke: #ff2465;
        stroke-width: 4px;
      }

      .cls-3, .cls-5 {
        fill: #ff2465;
      }

      .cls-4, .cls-5 {
        stroke: none;
      }
    </style>
  </defs>
  <g id="logo" transform="translate(-8.613 -5.916)">
    <path id="Path_1" data-name="Path 1" class="cls-1" d="M400.224,218.58c0,57.882-8.47,113.41-46.117,151.057s-93.175,42.823-151.057,42.823-96-22.117-133.645-60.235S.7,276.461.7,218.58,22.817,114.11,60.935,76.464,145.639.7,203.05.7,306.108,39.758,344.225,77.4,400.224,161.169,400.224,218.58Z" transform="translate(9.913 7.216)"/>
    <g id="Path_2" data-name="Path 2" class="cls-2" transform="translate(48.06 66.181)">
      <path class="cls-4" d="M337.415,163.211c0,89.4-82.981,163-172.383,163S12.9,252.613,12.9,163.211,76.124,17.5,165.032,17.5,337.415,74.3,337.415,163.211Z"/>
      <path class="cls-5" d="M 165.0317077636719 316.2089233398438 C 251.5348510742188 316.2089233398438 327.4147644042969 244.7143859863281 327.4147644042969 163.2105865478516 C 327.4147644042969 78.26231384277344 244.8519744873047 27.49997901916504 165.0317077636719 27.49997901916504 C 80.018310546875 27.49997901916504 22.89997863769531 82.03791046142578 22.89997863769531 163.2105865478516 C 22.89997863769531 250.4339141845703 84.00331115722656 316.2089233398438 165.0317077636719 316.2089233398438 M 165.0317077636719 326.2089233398438 C 75.62964630126953 326.2089233398438 12.89997959136963 252.6126403808594 12.89997959136963 163.2105865478516 C 12.89997959136963 73.80850982666016 76.12358093261719 17.49997901916504 165.0317077636719 17.49997901916504 C 253.9398498535156 17.49997901916504 337.4147644042969 74.30244445800781 337.4147644042969 163.2105865478516 C 337.4147644042969 252.6126403808594 254.4338531494141 326.2089233398438 165.0317077636719 326.2089233398438 Z"/>
    </g>
    <path id="Path_3" data-name="Path 3" class="cls-3" d="M253.315,132c0,59.245-57.812,112.279-117.057,112.279S19.2,191.247,19.2,132,77.012,24.5,136.257,24.5,253.315,72.756,253.315,132Z" transform="translate(80.834 99.471)"/>
  </g>
</svg>
