<svg xmlns="http://www.w3.org/2000/svg" viewBox="0 0 131.155 52.967"><title>tah_logo</title><path d="M0,34.163c.773-2.644,2.132-7.216,2.89-9.865.855-2.992,1.685-5.992,2.53-9h5.553c1.753,6.263,3.508,12.527,5.28,18.858H11.262l-.825-3.438H5.871l-.786,3.447H0Zm8.245-13.3-.191-.009L6.7,26.966H9.607Z"/><path d="M82.733,15.3H87.28V34.137H82.9V25.155l-.173-.047-3.215,6.455H77.259l-3.111-6.23-.207.035v8.753H69.457V15.348h4.62c1.374,3.165,2.791,6.426,4.3,9.9C79.879,21.822,81.308,18.556,82.733,15.3Z"/><path d="M57.6,25.152v8.959H53.3v-18.8h3.609L62.2,24.022l.192-.048V15.317h4.287V34.154h-3.4c-1.811-3.012-3.638-6.052-5.464-9.092Z"/><path d="M107.115,15.33,112.382,24l.2-.066v-8.6h4.26V34.2h-3.349l-5.648-9.4V34.12h-4.337V15.33Z"/><path d="M50.849,24.164v9.971H47.011l-.124-.66a.78.78,0,0,0-.221.039c-4.2,2.424-8.741.278-9.188-4.515a48.988,48.988,0,0,1,.007-8.277c.257-3.326,2.357-5.289,5.679-5.642a7.5,7.5,0,0,1,5.678,1.313A5.362,5.362,0,0,1,50.9,19.768l-3.493,1.263c-.192-.306-.364-.605-.561-.887a2.492,2.492,0,0,0-2.726-.974,2.025,2.025,0,0,0-1.77,2.007c-.085,2.377-.13,4.763-.005,7.136a2.371,2.371,0,0,0,3.737,1.644c.631-.429.7-.749.488-2.567l-1.7-.16V24.164Z"/><path d="M101.519,34.142H90.133V15.352h11.11v4.157H95.08v3.16H99.6v3.71h-4.51V30h6.434Z"/><path d="M127.323,19.481v14.63h-4.915V19.538h-3.93V15.327h12.677v4.154Z"/><path d="M17.546,15.314h4.667V29.84h5.921v4.276H17.546Z"/><path d="M30.171,15.312h4.737V34.13H30.171Z"/><path d="M58.342,45.261c0,.836,0,1.672,0,2.508-.009,3.617-2.159,5.524-5.756,5.106a4.315,4.315,0,0,1-4.077-4.448q-.1-3.18,0-6.365c.09-2.855,1.952-4.522,4.92-4.518s4.793,1.673,4.909,4.534C58.376,43.138,58.34,44.2,58.342,45.261ZM50.008,45.2c0,1.061-.03,2.124.007,3.184.072,2.069,1.3,3.2,3.423,3.2,2.09,0,3.318-1.093,3.371-3.132q.084-3.23,0-6.464c-.054-2.009-1.322-3.122-3.4-3.116a3.071,3.071,0,0,0-3.389,3.148C49.975,43.079,50.009,44.142,50.008,45.2Z"/><path d="M37.775,52.667H36.356V37.8h1.407v6.545H44.1V37.826h1.435V52.638h-1.4V45.779H37.775Z"/><path d="M61.045,37.792H62.5v1.046c0,3.026-.008,6.052,0,9.078.011,2.992,2.4,4.537,5.157,3.335a2.921,2.921,0,0,0,1.694-2.993c.011-3.09,0-6.181,0-9.271V37.833H70.87v2.4c0,2.576.026,5.151-.01,7.726-.027,1.941-.558,3.709-2.543,4.487a5.569,5.569,0,0,1-5.838-.672,3.752,3.752,0,0,1-1.418-2.958C61.019,45.183,61.045,41.548,61.045,37.792Z"/><path d="M83.934,52.648V37.81h8.155v1.269H85.455v5.249h5.351v1.256h-5.35v5.732h6.97v1.332Z"/><path d="M27.59,11.165H25.984V6.308h-3.97v4.831H20.342V.011h1.607V4.624h4V.011H27.59Z"/><path d="M72.782,49.57l1.131-.462c.176.322.318.6.48.875a3.481,3.481,0,0,0,4.566,1.251A2.652,2.652,0,0,0,79.2,46.9a16.544,16.544,0,0,0-2.271-1.246c-.737-.389-1.52-.7-2.216-1.156a3.755,3.755,0,0,1-1.617-4.2,3.563,3.563,0,0,1,3.279-2.681c2.455-.307,4.275.673,5.09,2.828l-1.02.478a3.422,3.422,0,0,0-4-2.016,2.091,2.091,0,0,0-1.872,1.576,2.344,2.344,0,0,0,.779,2.609,12.6,12.6,0,0,0,1.813,1.083c.651.346,1.342.618,1.994.964,2.223,1.184,3.012,3.111,2.194,5.309a4.251,4.251,0,0,1-5.039,2.382A4.454,4.454,0,0,1,72.782,49.57Z"/><path d="M31.627,6.089V9.753h4.834v1.392H29.967V0h6.289V1.411h-4.6V4.753h3.6V6.089Z"/><path d="M14.653,1.419h-2.8V0h7.169v1.36H16.367v9.767H14.653Z"/></svg>